<svg xmlns="http://www.w3.org/2000/svg" viewBox="0 0 32 32" id="Face">
  <path fill="#ffff" d="M15.092 7c-2.941.016-5.873 1.567-7.281 4.531-1.08 2.273-1.007 5.05-.22 7.563.76 2.42 2.222 4.553 4.063 5.843.07.05.116.141.188.188l1.469.969-.75-1.594s-.382-.795-.657-2.063c.834 1.47 1.986 2.483 3.282 2.97 1.575.59 3.347.348 4.843-.845.401-.32.77-.684 1.094-1.093-.151.523-.308 1.018-.5 1.625l-.344 1.156 1.063-.563c2-1.04 3.218-2.85 3.906-4.875.688-2.023.88-4.279.875-6.25-.005-1.97-.854-3.55-2-4.406-.573-.427-1.237-.677-1.906-.656-.446.014-.884.174-1.281.438-.12-.218-.25-.461-.375-.657-.229-.355-.527-.67-1.032-1a8.09 8.09 0 0 0-3.187-1.219A8.032 8.032 0 0 0 15.092 7zm3.594 7.781c.044.304.116.549.218.781.205.466.53.809.875 1 .693.384 1.413.35 1.782.5a.637.637 0 0 1 .375.344c.063.118.121.316.156.563a.5.5 0 0 0 0 .093v.032c-.189 2.329-1.18 4.485-2.688 5.687-1.257 1.003-2.61 1.163-3.875.688-1.265-.475-2.439-1.629-3.187-3.438a9.728 9.728 0 0 1-.656-2.5.504.504 0 0 0 0-.031c.122-1.042.41-1.565.75-1.844.452-.372 1.196-.429 2.187-.5.991-.07 2.184-.192 3.375-.906.23-.138.463-.284.688-.469z" color="#000" font-family="Sans" font-weight="400" overflow="visible" style="line-height:normal;-inkscape-font-specification:Sans;text-indent:0;text-align:start;text-decoration-line:none;text-transform:none;block-progression:tb;marker:none" class="color373449 svgShape"></path>
</svg>