<svg xmlns="http://www.w3.org/2000/svg" enable-background="new 0 0 550 550" viewBox="0 0 550 550" id="Thunder">
  <path d="M135.337,541.217c-1.922,0-3.853-0.553-5.541-1.677c-3.838-2.556-5.431-7.404-3.856-11.737L214.509,284h-79.17
		c-4.128,0-7.832-2.537-9.324-6.387c-1.492-3.849-0.465-8.219,2.585-11.001L407.922,11.829c3.403-3.105,8.489-3.483,12.314-0.914
		s5.399,7.419,3.813,11.745L335.538,264h79.123c4.12,0,7.817,2.526,9.315,6.364c1.498,3.837,0.489,8.201-2.541,10.992
		L142.113,538.573C140.214,540.322,137.782,541.217,135.337,541.217z M161.141,264h67.641c3.262,0,6.318,1.591,8.189,4.262
		c1.872,2.671,2.323,6.087,1.21,9.152l-79.433,218.652L389.039,284h-67.82c-3.267,0-6.328-1.596-8.198-4.274
		c-1.871-2.679-2.315-6.102-1.19-9.169l79.365-216.401L161.141,264z" fill="#ffaa00" class="color000000 svgShape"></path>
</svg>